<?xml version="1.0" encoding="utf-8"?>
<!-- Generator: Adobe Illustrator 18.1.1, SVG Export Plug-In . SVG Version: 6.00 Build 0)  -->
<svg version="1.1" id="Calque_1" xmlns="http://www.w3.org/2000/svg" xmlns:xlink="http://www.w3.org/1999/xlink" x="0px" y="0px"
	 viewBox="286.1 405.9 23 30" enable-background="new 286.1 405.9 23 30" xml:space="preserve">
<g id="Calque_2">
	<path fill="#CC3333" d="M309.1,418.5c0,6.9-9.4,15.4-11.5,17.4c-2.1-2.1-11.5-10.5-11.5-17.4c0-6.9,5.1-12.6,11.5-12.6
		C304,405.9,309.1,411.6,309.1,418.5z"/>
</g>
<g>
	<circle fill="#FFFFFF" cx="291.7" cy="413.8" r="1.8"/>
	<path fill="#FFFFFF" d="M300.9,413.8c0,0-6.4,0-6.4,0c0,1.5-1.2,2.7-2.7,2.7h-1.4c-0.2,0-0.5,0-0.5,0.5c0,0.1,0,0.6,0,0.9
		c0,0.5,0.4,0.5,0.5,0.5h15v-1.8C305.4,415.6,305.4,413.8,300.9,413.8z"/>
	<path fill="#FFFFFF" d="M304.5,419.3h-13.7c-0.5,0-0.9,0.5-0.9,0.9c0,0.9,0,2,0,2.7c0,0.5,0.5,0.9,0.9,0.9s0.9-0.5,0.9-0.9v-1.8
		h11.8v1.8c0,0.5,0.5,0.9,0.9,0.9c0.5,0,0.9-0.5,0.9-0.9v-2.7C305.4,419.7,304.9,419.3,304.5,419.3z"/>
</g>
</svg>
