<?xml version="1.0" encoding="utf-8"?>
<!-- Generator: Adobe Illustrator 18.1.1, SVG Export Plug-In . SVG Version: 6.00 Build 0)  -->
<svg version="1.1" id="Calque_1" xmlns="http://www.w3.org/2000/svg" xmlns:xlink="http://www.w3.org/1999/xlink" x="0px" y="0px"
	 viewBox="286.1 405.9 23 30" enable-background="new 286.1 405.9 23 30" xml:space="preserve">
<g id="Calque_2">
	<path fill="#CC3333" d="M309.1,418.5c0,6.9-9.4,15.4-11.5,17.4c-2.1-2.1-11.5-10.5-11.5-17.4c0-6.9,5.1-12.6,11.5-12.6
		S309.1,411.6,309.1,418.5z"/>
</g>
<g id="Calque_1_1_">
	<g id="Your_Icon">
		<path fill="#FFFFFF" d="M305.4,414.1l-7.7-5.2l-7.7,5.2h7.7H305.4z M296.1,411.8c0-0.8,0.7-1.5,1.5-1.5s1.5,0.7,1.5,1.5
			s-0.7,1.5-1.5,1.5S296.1,412.6,296.1,411.8z"/>
		<path fill="#FFFFFF" d="M304.4,414.8h-13.5c-0.2,0-0.3,0.2-0.3,0.3s0.2,0.3,0.3,0.3h13.5c0.2,0,0.3-0.2,0.3-0.3
			S304.6,414.8,304.4,414.8z"/>
		<path fill="#FFFFFF" d="M304.4,425.1h-13.5c-0.2,0-0.3,0.2-0.3,0.3s0.2,0.3,0.3,0.3h13.5c0.2,0,0.3-0.2,0.3-0.3
			S304.6,425.1,304.4,425.1z"/>
		<path fill="#FFFFFF" d="M293.4,416.7c0.2,0,0.3-0.2,0.3-0.3s-0.2-0.3-0.3-0.3h-2.6c-0.2,0-0.3,0.2-0.3,0.3s0.2,0.3,0.3,0.3h0.3
			v7.1h-0.3c-0.2,0-0.3,0.2-0.3,0.3c0,0.2,0.2,0.3,0.3,0.3h2.6c0.2,0,0.3-0.2,0.3-0.3s-0.2-0.3-0.3-0.3h-0.3v-7.1H293.4z"/>
		<path fill="#FFFFFF" d="M296,423.8c-0.2,0-0.3,0.2-0.3,0.3c0,0.2,0.2,0.3,0.3,0.3h2.6c0.2,0,0.3-0.2,0.3-0.3s-0.2-0.3-0.3-0.3
			h-0.3v-7.1h0.3c0.2,0,0.3-0.2,0.3-0.3s-0.2-0.3-0.3-0.3H296c-0.2,0-0.3,0.2-0.3,0.3s0.2,0.3,0.3,0.3h0.3v7.1H296z"/>
		<path fill="#FFFFFF" d="M301.2,423.8c-0.2,0-0.3,0.2-0.3,0.3c0,0.2,0.2,0.3,0.3,0.3h2.6c0.2,0,0.3-0.2,0.3-0.3s-0.2-0.3-0.3-0.3
			h-0.3v-7.1h0.3c0.2,0,0.3-0.2,0.3-0.3s-0.2-0.3-0.3-0.3h-2.6c-0.2,0-0.3,0.2-0.3,0.3s0.2,0.3,0.3,0.3h0.3v7.1H301.2z"/>
	</g>
</g>
</svg>
