<?xml version="1.0" standalone="no"?>
<?xml-stylesheet type="text/css" href="../../style.css"?>
<svg class="gmcc__picto active" xmlns="http://www.w3.org/2000/svg" version="1.1" x="0" y="0" viewBox="286.1 405.9 23 30" enable-background="new 286.1 405.9 23 30" xml:space="preserve">
  <path class="background" fill="#CC3333" d="M309.1 418.5c0 6.9-9.4 15.4-11.5 17.4-2.1-2.1-11.5-10.5-11.5-17.4 0-6.9 5.1-12.6 11.5-12.6C304 405.9 309.1 411.6 309.1 418.5z"/>
  <circle fill="#FFFFFF" cx="291.7" cy="413.8" r="1.8"/>
  <path fill="#FFFFFF" d="M300.9 413.8c0 0-6.4 0-6.4 0 0 1.5-1.2 2.7-2.7 2.7h-1.4c-0.2 0-0.5 0-0.5 0.5 0 0.1 0 0.6 0 0.9 0 0.5 0.4 0.5 0.5 0.5h15v-1.8C305.4 415.6 305.4 413.8 300.9 413.8zM304.5 419.3h-13.7c-0.5 0-0.9 0.5-0.9 0.9 0 0.9 0 2 0 2.7 0 0.5 0.5 0.9 0.9 0.9s0.9-0.5 0.9-0.9v-1.8h11.8v1.8c0 0.5 0.5 0.9 0.9 0.9 0.5 0 0.9-0.5 0.9-0.9v-2.7C305.4 419.7 304.9 419.3 304.5 419.3z"/>
</svg>
