<?xml version="1.0" encoding="utf-8"?>
<!-- Generator: Adobe Illustrator 18.1.1, SVG Export Plug-In . SVG Version: 6.00 Build 0)  -->
<svg version="1.1" id="Calque_1" xmlns="http://www.w3.org/2000/svg" xmlns:xlink="http://www.w3.org/1999/xlink" x="0px" y="0px"
	 viewBox="286.1 405 23 30" enable-background="new 286.1 405 23 30" xml:space="preserve">
<g id="Calque_2">
	<path fill="#CC3333" d="M309,417.5c0,6.9-9.3,15.5-11.4,17.5c-2.1-2.1-11.4-10.7-11.4-17.5s5.1-12.5,11.4-12.5S309,410.6,309,417.5
		z"/>
</g>
<g>
	<path fill="#FFFFFF" d="M291.2,410.7c0,0-1-0.6-1,0.5c-0.1,1.1,1.7,3.3,3.5,5.2c1.9,2,1.9,2,3.6,3.5l0.9,0c0,0,3.1,3.5,4.3,4.6
		c0.8,0.8,2.1-0.5,1.4-1.1L291.2,410.7z"/>
	<path fill="#FFFFFF" d="M290.4,423.1c-0.9,0.9,0.4,2.4,1.4,1.4s3.9-3.9,3.9-3.9l-1.4-1.4C294.3,419.2,291.3,422.2,290.4,423.1z"/>
	<path fill="#FFFFFF" d="M304.7,412.9c-0.1-0.3-0.4-0.5-0.7-0.5c-0.2,0-0.4,0.1-0.6,0.3l-2.5,2.5c-0.3,0.3-0.8,0.4-1,0.1l-0.2-0.2
		c-0.4-0.4-0.1-0.9,0.1-1.1l2.4-2.4c0.3-0.3,0.3-0.6,0.2-0.9c-0.1-0.3-0.4-0.5-0.7-0.5c-0.2,0-0.4,0.1-0.6,0.3l-2.6,2.6
		c-0.7,0.7-1,1.9-0.1,2.8c0.2,0.2,0.2,0.2,0.2,0.2c0,0,0.1,0.1,0.5,0.5c0.4,0.4,0.8,0.6,1.3,0.6c0.5,0,1.1-0.3,1.5-0.7l2.6-2.6
		C304.7,413.5,304.8,413.2,304.7,412.9z"/>
</g>
</svg>
