<?xml version="1.0" standalone="no"?>
<?xml-stylesheet type="text/css" href="../../style.css"?>
<svg class="gmcc__picto active" xmlns="http://www.w3.org/2000/svg" version="1.1" x="0" y="0" viewBox="286.1 405.9 23 30" enable-background="new 286.1 405.9 23 30" xml:space="preserve">
  <path class="background" fill="#CC3333" d="M309.1 418.5c0 6.9-9.4 15.4-11.5 17.4 -2.1-2.1-11.5-10.5-11.5-17.4 0-6.9 5.1-12.6 11.5-12.6S309.1 411.6 309.1 418.5z"/>
  <path fill="#FFFFFF" d="M305.4 414.1l-7.7-5.2 -7.7 5.2h7.7H305.4zM296.1 411.8c0-0.8 0.7-1.5 1.5-1.5s1.5 0.7 1.5 1.5 -0.7 1.5-1.5 1.5S296.1 412.6 296.1 411.8zM304.4 414.8h-13.5c-0.2 0-0.3 0.2-0.3 0.3s0.2 0.3 0.3 0.3h13.5c0.2 0 0.3-0.2 0.3-0.3S304.6 414.8 304.4 414.8zM304.4 425.1h-13.5c-0.2 0-0.3 0.2-0.3 0.3s0.2 0.3 0.3 0.3h13.5c0.2 0 0.3-0.2 0.3-0.3S304.6 425.1 304.4 425.1zM293.4 416.7c0.2 0 0.3-0.2 0.3-0.3s-0.2-0.3-0.3-0.3h-2.6c-0.2 0-0.3 0.2-0.3 0.3s0.2 0.3 0.3 0.3h0.3v7.1h-0.3c-0.2 0-0.3 0.2-0.3 0.3 0 0.2 0.2 0.3 0.3 0.3h2.6c0.2 0 0.3-0.2 0.3-0.3s-0.2-0.3-0.3-0.3h-0.3v-7.1H293.4zM296 423.8c-0.2 0-0.3 0.2-0.3 0.3 0 0.2 0.2 0.3 0.3 0.3h2.6c0.2 0 0.3-0.2 0.3-0.3s-0.2-0.3-0.3-0.3h-0.3v-7.1h0.3c0.2 0 0.3-0.2 0.3-0.3s-0.2-0.3-0.3-0.3H296c-0.2 0-0.3 0.2-0.3 0.3s0.2 0.3 0.3 0.3h0.3v7.1H296zM301.2 423.8c-0.2 0-0.3 0.2-0.3 0.3 0 0.2 0.2 0.3 0.3 0.3h2.6c0.2 0 0.3-0.2 0.3-0.3s-0.2-0.3-0.3-0.3h-0.3v-7.1h0.3c0.2 0 0.3-0.2 0.3-0.3s-0.2-0.3-0.3-0.3h-2.6c-0.2 0-0.3 0.2-0.3 0.3s0.2 0.3 0.3 0.3h0.3v7.1H301.2z"/>
</svg>
